M48
;Layer_Color=9474304
;FILE_FORMAT=2:5
INCH,TZ
;TYPE=PLATED
T01F00S00C0.01181
T02F00S00C0.01575
T03F00S00C0.04000
%
T01
X-11417Y113386
X13386
X30709Y120472
Y127953
Y135433
Y142913
X51968Y133465
Y129134
X59449Y138976
X42070Y116702
X-27559Y117976
X-40551Y116535
Y132283
Y141339
X-35433Y144882
X-40551Y151181
Y157480
Y163779
Y170079
Y176378
Y182677
X-26006Y179492
Y173193
Y166894
Y160594
Y154295
Y198390
Y204689
X-40551Y201575
Y207874
Y214173
Y220472
Y226772
Y233071
Y239370
Y245669
Y251969
Y257874
Y264567
Y270866
Y277165
Y280315
X-36636Y273980
X-33977Y273945
X-31518Y273980
X-28762
X-26006
Y267681
X-28762
X-31518
X-33977Y267646
X-36636Y267681
Y261382
X-33977Y261346
X-31518Y261382
X-28762
X-26006
Y255083
Y248783
Y242484
Y236185
Y229886
Y223587
Y217287
Y210988
X-22857Y261382
Y267681
Y273980
X135039Y388976
X137699Y388941
X140157Y388976
X145669Y384646
X148329Y384610
X150787Y384646
X121653Y379528
X119195Y379492
X116535Y379528
T02
X112992Y334646
T03
X522866Y20748
X532866
Y30748
Y40748
Y50748
X522866
Y40748
Y30748
Y60748
X532866
Y70748
Y80748
Y90748
Y100748
Y110748
Y120748
Y130748
Y140748
Y150748
Y160748
Y170748
Y180748
Y190748
Y200748
X522866
Y190748
Y180748
Y170748
Y160748
Y150748
Y140748
Y130748
Y120748
Y110748
Y100748
Y90748
Y80748
Y70748
Y210748
X532866
Y232756
Y242756
Y252756
Y262756
Y272756
Y282756
Y292756
Y302756
Y312756
Y322756
Y332756
Y342756
Y352756
Y362756
X522866
Y352756
Y342756
Y332756
Y322756
Y312756
Y302756
Y292756
Y282756
Y272756
Y262756
Y252756
Y242756
Y232756
Y372756
X532866
M30
