G04*
G04 #@! TF.GenerationSoftware,Altium Limited,Altium Designer,24.0.1 (36)*
G04*
G04 Layer_Color=8388736*
%FSLAX25Y25*%
%MOIN*%
G70*
G04*
G04 #@! TF.SameCoordinates,C11CCB2D-CE67-4529-966E-2B711A11BC15*
G04*
G04*
G04 #@! TF.FilePolarity,Negative*
G04*
G01*
G75*
%ADD25R,0.04147X0.04540*%
%ADD26R,0.04000X0.04800*%
G04:AMPARAMS|DCode=27|XSize=31.62mil|YSize=65.09mil|CornerRadius=6.01mil|HoleSize=0mil|Usage=FLASHONLY|Rotation=90.000|XOffset=0mil|YOffset=0mil|HoleType=Round|Shape=RoundedRectangle|*
%AMROUNDEDRECTD27*
21,1,0.03162,0.05307,0,0,90.0*
21,1,0.01961,0.06509,0,0,90.0*
1,1,0.01202,0.02653,0.00980*
1,1,0.01202,0.02653,-0.00980*
1,1,0.01202,-0.02653,-0.00980*
1,1,0.01202,-0.02653,0.00980*
%
%ADD27ROUNDEDRECTD27*%
%ADD28R,0.03556X0.04343*%
%ADD29R,0.07414X0.13162*%
%ADD30R,0.03950X0.03950*%
%ADD31R,0.11417X0.02559*%
%ADD32C,0.06600*%
%ADD33C,0.02769*%
%ADD34C,0.03162*%
G36*
X79934Y127541D02*
X78934D01*
X76534Y129941D01*
X78934Y132342D01*
X79934D01*
Y127541D01*
D02*
G37*
G36*
X76334Y129941D02*
X78734Y127541D01*
X74934D01*
Y129941D01*
Y132342D01*
X78734D01*
X76334Y129941D01*
D02*
G37*
D25*
X4724Y113350D02*
D03*
X9843D02*
D03*
X-2953D02*
D03*
X-8071D02*
D03*
X473032Y357402D02*
D03*
X478150D02*
D03*
X473032Y347402D02*
D03*
X478150D02*
D03*
X473032Y337402D02*
D03*
X478150D02*
D03*
X473032Y327402D02*
D03*
X478150D02*
D03*
X473032Y317402D02*
D03*
X478150D02*
D03*
X473032Y307402D02*
D03*
X478150D02*
D03*
X473032Y297402D02*
D03*
X478150D02*
D03*
X473032Y287402D02*
D03*
X478150D02*
D03*
X473032Y266978D02*
D03*
X478150D02*
D03*
X473032Y256988D02*
D03*
X478150D02*
D03*
X473032Y246998D02*
D03*
X478150D02*
D03*
X473032Y237008D02*
D03*
X478150D02*
D03*
X473032Y227018D02*
D03*
X478150D02*
D03*
X473031Y195131D02*
D03*
X478149D02*
D03*
X473031Y185131D02*
D03*
X478149D02*
D03*
X473031Y175130D02*
D03*
X478149D02*
D03*
X473031Y165130D02*
D03*
X478149D02*
D03*
X473031Y155131D02*
D03*
X478149D02*
D03*
X473031Y145131D02*
D03*
X478149D02*
D03*
X473031Y135131D02*
D03*
X478149D02*
D03*
X473031Y125130D02*
D03*
X478149D02*
D03*
X473032Y105131D02*
D03*
X478150D02*
D03*
X473032Y95186D02*
D03*
X478150D02*
D03*
X473032Y85242D02*
D03*
X478150D02*
D03*
X473032Y75298D02*
D03*
X478150D02*
D03*
X473032Y65354D02*
D03*
X478150D02*
D03*
X473032Y55410D02*
D03*
X478150D02*
D03*
X473032Y45466D02*
D03*
X478150D02*
D03*
X473032Y35522D02*
D03*
X478150D02*
D03*
X473032Y25577D02*
D03*
X478150D02*
D03*
X75000Y123969D02*
D03*
X80118D02*
D03*
X75000Y117946D02*
D03*
X80118D02*
D03*
X39173Y135225D02*
D03*
X34055D02*
D03*
X39173Y127942D02*
D03*
X34055D02*
D03*
X39173Y120820D02*
D03*
X34055D02*
D03*
X92520Y334646D02*
D03*
X87402D02*
D03*
D26*
X80934Y129941D02*
D03*
X74184D02*
D03*
D27*
X46358Y133091D02*
D03*
Y128091D02*
D03*
Y123091D02*
D03*
Y118091D02*
D03*
X67815Y133091D02*
D03*
Y128091D02*
D03*
Y123091D02*
D03*
Y118091D02*
D03*
D28*
X62598Y138965D02*
D03*
X68110D02*
D03*
D29*
X63346Y334646D02*
D03*
X44528D02*
D03*
X63346Y317717D02*
D03*
X44528D02*
D03*
X63346Y300787D02*
D03*
X44528D02*
D03*
D30*
X108268Y334646D02*
D03*
X101969D02*
D03*
D31*
X-48976Y280280D02*
D03*
Y277130D02*
D03*
Y273980D02*
D03*
Y270831D02*
D03*
Y267681D02*
D03*
Y264531D02*
D03*
Y261382D02*
D03*
Y258232D02*
D03*
Y255083D02*
D03*
Y251933D02*
D03*
Y248783D02*
D03*
Y245634D02*
D03*
Y242484D02*
D03*
Y239335D02*
D03*
Y236185D02*
D03*
Y233035D02*
D03*
Y229886D02*
D03*
Y226736D02*
D03*
Y223587D02*
D03*
Y220437D02*
D03*
Y217287D02*
D03*
Y214138D02*
D03*
Y210988D02*
D03*
Y207839D02*
D03*
Y204689D02*
D03*
Y201539D02*
D03*
Y198390D02*
D03*
Y182642D02*
D03*
Y179492D02*
D03*
Y176343D02*
D03*
Y173193D02*
D03*
Y170043D02*
D03*
Y166894D02*
D03*
Y163744D02*
D03*
Y160594D02*
D03*
Y157445D02*
D03*
Y154295D02*
D03*
Y151146D02*
D03*
Y147996D02*
D03*
Y144846D02*
D03*
Y141697D02*
D03*
Y138547D02*
D03*
Y135398D02*
D03*
Y132248D02*
D03*
Y129098D02*
D03*
Y125949D02*
D03*
Y122799D02*
D03*
Y119650D02*
D03*
Y116500D02*
D03*
Y113350D02*
D03*
D32*
X532866Y210748D02*
D03*
Y200748D02*
D03*
Y190748D02*
D03*
Y180748D02*
D03*
Y170748D02*
D03*
Y160748D02*
D03*
Y150748D02*
D03*
Y140748D02*
D03*
Y130748D02*
D03*
Y120748D02*
D03*
Y110748D02*
D03*
Y100748D02*
D03*
Y90748D02*
D03*
Y80748D02*
D03*
Y70748D02*
D03*
Y60748D02*
D03*
Y50748D02*
D03*
Y40748D02*
D03*
Y30748D02*
D03*
Y20748D02*
D03*
X522866Y210748D02*
D03*
Y200748D02*
D03*
Y190748D02*
D03*
Y180748D02*
D03*
Y170748D02*
D03*
Y160748D02*
D03*
Y150748D02*
D03*
Y140748D02*
D03*
Y130748D02*
D03*
Y120748D02*
D03*
Y110748D02*
D03*
Y100748D02*
D03*
Y90748D02*
D03*
Y80748D02*
D03*
Y70748D02*
D03*
Y60748D02*
D03*
Y50748D02*
D03*
Y40748D02*
D03*
Y30748D02*
D03*
Y20748D02*
D03*
X532866Y372756D02*
D03*
Y362756D02*
D03*
Y352756D02*
D03*
Y342756D02*
D03*
Y332756D02*
D03*
Y322756D02*
D03*
Y312756D02*
D03*
Y302756D02*
D03*
Y292756D02*
D03*
Y282756D02*
D03*
Y272756D02*
D03*
Y262756D02*
D03*
Y252756D02*
D03*
Y242756D02*
D03*
Y232756D02*
D03*
X522866Y372756D02*
D03*
Y362756D02*
D03*
Y352756D02*
D03*
Y342756D02*
D03*
Y332756D02*
D03*
Y322756D02*
D03*
Y312756D02*
D03*
Y302756D02*
D03*
Y292756D02*
D03*
Y282756D02*
D03*
Y272756D02*
D03*
Y262756D02*
D03*
Y252756D02*
D03*
Y242756D02*
D03*
Y232756D02*
D03*
D33*
X30709Y142913D02*
D03*
X-40551Y201575D02*
D03*
Y207874D02*
D03*
Y214173D02*
D03*
Y220472D02*
D03*
Y226772D02*
D03*
Y233071D02*
D03*
Y239370D02*
D03*
Y245669D02*
D03*
Y251969D02*
D03*
Y257874D02*
D03*
Y264567D02*
D03*
Y270866D02*
D03*
Y277165D02*
D03*
Y280315D02*
D03*
Y116535D02*
D03*
Y182677D02*
D03*
Y176378D02*
D03*
Y170079D02*
D03*
Y163779D02*
D03*
Y157480D02*
D03*
Y151181D02*
D03*
Y132283D02*
D03*
Y141339D02*
D03*
X59449Y138976D02*
D03*
X42070Y116702D02*
D03*
X30709Y127953D02*
D03*
Y135433D02*
D03*
Y120472D02*
D03*
X51968Y129134D02*
D03*
Y133465D02*
D03*
X-35433Y144882D02*
D03*
X-27559Y117976D02*
D03*
X-11417Y113386D02*
D03*
X13386D02*
D03*
X-26006Y154295D02*
D03*
Y160594D02*
D03*
Y166894D02*
D03*
Y173193D02*
D03*
Y179492D02*
D03*
Y198390D02*
D03*
Y204689D02*
D03*
Y210988D02*
D03*
Y217287D02*
D03*
Y223587D02*
D03*
Y229886D02*
D03*
Y236185D02*
D03*
Y242484D02*
D03*
Y248783D02*
D03*
Y255083D02*
D03*
D34*
X112992Y334646D02*
D03*
M02*
